<svg width="31" height="39" viewBox="0 0 31 39" fill="none" xmlns="http://www.w3.org/2000/svg">
<path d="M8.36769 36.6768C6.77629 36.6768 5.37844 36.4402 4.17414 35.9671C2.96984 35.5155 2.03436 34.7736 1.36769 33.7413C0.701025 32.709 0.367692 31.3327 0.367692 29.6123C0.367692 27.8918 0.647262 26.2144 1.2064 24.58C1.78705 22.9241 2.58275 21.3865 3.5935 19.9671C4.60425 18.5478 5.78705 17.3004 7.14189 16.2252C8.51823 15.1499 10.0021 14.3112 11.5935 13.709C13.1849 13.1069 14.8408 12.8058 16.5612 12.8058C18.4752 12.8058 20.0344 13.1284 21.2387 13.7736C22.443 14.4187 23.3247 15.3004 23.8838 16.4187C24.4645 17.5155 24.7548 18.7521 24.7548 20.1284C24.7548 21.9564 24.3139 23.8703 23.4322 25.8703C22.529 27.9133 21.3462 29.7521 19.8838 31.3865C18.4215 33.0209 16.7118 34.3112 14.7548 35.2574C12.8193 36.2037 10.6903 36.6768 8.36769 36.6768ZM11.3032 34.9671C12.572 34.623 13.8193 33.9886 15.0451 33.0639C16.2709 32.1392 17.3784 31.0316 18.3677 29.7413C19.3569 28.451 20.1419 27.0961 20.7225 25.6768C21.6258 23.5047 22.0774 21.4617 22.0774 19.5478C22.0774 19.2467 22.0559 18.9564 22.0129 18.6768C21.9913 18.3972 21.9591 18.1284 21.9161 17.8703C21.6795 16.5585 21.1311 15.6338 20.2709 15.0961C19.4107 14.5585 18.443 14.2897 17.3677 14.2897C16.2494 14.2897 15.1096 14.5155 13.9483 14.9671C12.787 15.3972 11.787 15.9349 10.9483 16.58C9.91608 17.3972 8.95909 18.3327 8.07737 19.3865C7.19565 20.4402 6.45371 21.5585 5.85156 22.7413C5.33543 23.7736 4.91608 24.9026 4.5935 26.1284C4.29242 27.3327 4.14189 28.5047 4.14189 29.6445C4.14189 30.6768 4.29242 31.623 4.5935 32.4832C4.89457 33.3435 5.3892 34.0424 6.07737 34.58C6.76554 35.0961 7.67952 35.3542 8.8193 35.3542C9.55049 35.3542 10.3784 35.2252 11.3032 34.9671Z" fill="url(#paint0_linear_5025_1065)"/>
<path d="M17.1377 32.825C17.1912 32.7084 17.2558 32.5966 17.3314 32.4895C17.407 32.3824 17.4937 32.2879 17.5913 32.206C17.689 32.1241 17.7977 32.0595 17.9174 32.0122C18.0371 31.9618 18.1678 31.9366 18.3096 31.9366C18.4986 31.9366 18.6655 31.9823 18.8105 32.0737C18.9554 32.1619 19.0766 32.2816 19.1743 32.4328C19.272 32.5808 19.346 32.7541 19.3964 32.9526C19.4468 33.1479 19.472 33.3511 19.472 33.5621C19.472 33.8866 19.4389 34.1796 19.3728 34.441C19.3098 34.6993 19.2231 34.9262 19.1129 35.1215C19.283 34.9923 19.4547 34.8206 19.6279 34.6064C19.8043 34.3922 19.9776 34.115 20.1477 33.7748L20.195 33.6755L20.3887 33.822L20.3415 33.9212C20.1965 34.2111 20.0375 34.4725 19.8642 34.7056C19.6909 34.9388 19.5066 35.1372 19.3113 35.301C19.1192 35.4617 18.9176 35.5861 18.7065 35.6743C18.4954 35.7625 18.2796 35.8066 18.0591 35.8066C17.8638 35.8066 17.6827 35.7641 17.5157 35.6791C17.3519 35.594 17.2259 35.4885 17.1377 35.3625V37.5975C17.1377 37.7172 17.1282 37.8165 17.1093 37.8952C17.0936 37.9771 17.0652 38.0417 17.0243 38.089C16.9865 38.1394 16.9345 38.174 16.8684 38.1929C16.8022 38.215 16.7219 38.226 16.6274 38.226C16.5549 38.226 16.5045 38.2134 16.4762 38.1882C16.4478 38.1661 16.4336 38.1299 16.4336 38.0795C16.4336 38.0575 16.4368 38.0181 16.4431 37.9614C16.4494 37.9047 16.4557 37.818 16.462 37.7015C16.4683 37.5881 16.4746 37.4369 16.4809 37.2479C16.4872 37.062 16.4903 36.8242 16.4903 36.5343V33.9212C16.4903 33.5716 16.4888 33.2928 16.4856 33.0849C16.4825 32.8738 16.4793 32.71 16.4762 32.5934C16.473 32.4737 16.4699 32.3887 16.4667 32.3383C16.4636 32.2879 16.462 32.2438 16.462 32.206C16.462 32.1745 16.4777 32.143 16.5092 32.1115C16.5407 32.08 16.5817 32.0516 16.6321 32.0264C16.6825 32.0012 16.736 31.9807 16.7927 31.965C16.8526 31.9461 16.9093 31.9366 16.9629 31.9366C17.0164 31.9366 17.0589 31.9508 17.0904 31.9791C17.1219 32.0075 17.1377 32.0579 17.1377 32.1304V32.825ZM18.0591 32.3524C17.9268 32.3524 17.804 32.3981 17.6906 32.4895C17.5803 32.5808 17.4842 32.699 17.4023 32.8439C17.3236 32.9856 17.2606 33.1431 17.2133 33.3164C17.1692 33.4897 17.1471 33.6582 17.1471 33.822V34.3654C17.1471 34.5355 17.1692 34.6899 17.2133 34.8285C17.2606 34.9671 17.322 35.0852 17.3976 35.1829C17.4732 35.2806 17.5614 35.3562 17.6622 35.4097C17.7662 35.4601 17.8748 35.4853 17.9883 35.4853C18.256 35.4853 18.4576 35.3467 18.5931 35.0695C18.7317 34.7923 18.801 34.3575 18.801 33.7653C18.801 33.5637 18.7868 33.3763 18.7585 33.203C18.7301 33.0297 18.686 32.8801 18.6262 32.7541C18.5663 32.6281 18.4891 32.5304 18.3946 32.4611C18.3001 32.3887 18.1883 32.3524 18.0591 32.3524ZM21.5889 35.2727C21.6992 35.2727 21.811 35.2443 21.9244 35.1876C22.041 35.1309 22.1575 35.0427 22.2741 34.923C22.3938 34.8033 22.5167 34.6489 22.6427 34.4599C22.7687 34.2678 22.8978 34.0394 23.0301 33.7748L23.0774 33.6755L23.2711 33.822L23.2239 33.9212C23.0538 34.2583 22.8837 34.5466 22.7136 34.786C22.5466 35.0254 22.3812 35.2207 22.2174 35.3719C22.0567 35.5231 21.8976 35.6334 21.7401 35.7027C21.5826 35.772 21.4314 35.8066 21.2865 35.8066C21.0817 35.8066 20.899 35.7641 20.7384 35.6791C20.5777 35.594 20.4423 35.479 20.332 35.3341C20.2217 35.1861 20.1383 35.0159 20.0816 34.8238C20.0217 34.6285 19.9918 34.4237 19.9918 34.2095C19.9918 33.8693 20.039 33.5605 20.1335 33.2833C20.2249 33.003 20.3478 32.7635 20.5021 32.5651C20.6596 32.3666 20.8376 32.2123 21.0361 32.102C21.2345 31.9917 21.4409 31.9366 21.6551 31.9366C21.8724 31.9366 22.0378 31.9917 22.1512 32.102C22.2678 32.2123 22.3261 32.3509 22.3261 32.5178C22.3261 32.6785 22.2804 32.8297 22.189 32.9715C22.0977 33.1101 21.9733 33.2471 21.8157 33.3826C21.6614 33.5149 21.4818 33.6472 21.2771 33.7795C21.0723 33.9086 20.8565 34.0425 20.6297 34.1811C20.6517 34.3449 20.6895 34.4946 20.7431 34.63C20.7967 34.7623 20.8644 34.8773 20.9463 34.975C21.0282 35.0695 21.1227 35.1435 21.2298 35.1971C21.3369 35.2475 21.4566 35.2727 21.5889 35.2727ZM21.7354 32.6596C21.7354 32.5336 21.7008 32.4344 21.6315 32.3619C21.5653 32.2894 21.4834 32.2532 21.3857 32.2532C21.3038 32.2532 21.2172 32.2831 21.1259 32.343C21.0345 32.3997 20.951 32.4926 20.8754 32.6218C20.7998 32.7478 20.7368 32.91 20.6864 33.1085C20.636 33.307 20.6108 33.5479 20.6108 33.8315V33.9401C20.7179 33.8834 20.836 33.8094 20.9652 33.7181C21.0975 33.6236 21.2204 33.5196 21.3338 33.4062C21.4472 33.2928 21.5417 33.1731 21.6173 33.0471C21.696 32.9179 21.7354 32.7887 21.7354 32.6596ZM23.0301 33.7748L23.0774 33.6755C23.1247 33.581 23.1672 33.4834 23.205 33.3826C23.2459 33.2818 23.2806 33.1872 23.3089 33.099C23.3373 33.0077 23.3593 32.9274 23.3751 32.8581C23.3908 32.7856 23.4019 32.7305 23.4082 32.6927C23.3263 32.6832 23.2475 32.6627 23.1719 32.6312C23.0963 32.5997 23.0301 32.5572 22.9734 32.5037C22.9167 32.4501 22.8726 32.3871 22.8411 32.3146C22.8065 32.2422 22.7892 32.1603 22.7892 32.0689C22.7892 31.9965 22.8018 31.9319 22.827 31.8752C22.8522 31.8185 22.8868 31.7712 22.9309 31.7334C22.9719 31.6956 23.0191 31.6673 23.0727 31.6484C23.1231 31.6263 23.1766 31.6153 23.2333 31.6153C23.3089 31.6153 23.3751 31.631 23.4318 31.6626C23.4885 31.6941 23.5358 31.7366 23.5736 31.7901C23.6114 31.8405 23.6397 31.9004 23.6586 31.9697C23.6775 32.0358 23.687 32.1052 23.687 32.1776C23.7752 32.1776 23.8697 32.165 23.9705 32.1398C24.0744 32.1146 24.1784 32.0878 24.2824 32.0595C24.3863 32.028 24.4887 31.9996 24.5895 31.9744C24.6903 31.9492 24.7832 31.9366 24.8683 31.9366C24.9407 31.9366 24.999 31.9524 25.0431 31.9839C25.0872 32.0122 25.1093 32.0611 25.1093 32.1304C25.1093 32.1808 25.0935 32.2642 25.062 32.3808C25.0337 32.4974 24.9974 32.6328 24.9533 32.7872C24.9092 32.9415 24.8604 33.1101 24.8069 33.2928C24.7565 33.4723 24.7092 33.6551 24.6651 33.8409C24.621 34.0236 24.5832 34.2016 24.5517 34.3749C24.5233 34.5481 24.5092 34.7025 24.5092 34.838C24.5092 35.0081 24.5281 35.123 24.5659 35.1829C24.6037 35.2428 24.6714 35.2727 24.7691 35.2727C24.81 35.2727 24.8604 35.2554 24.9203 35.2207C24.9833 35.1829 25.0589 35.112 25.1471 35.0081C25.2353 34.901 25.3392 34.7497 25.459 34.5544C25.5818 34.356 25.7236 34.0961 25.8842 33.7748L25.9315 33.6755L26.1252 33.822L26.078 33.9212C25.889 34.2993 25.7204 34.6096 25.5724 34.8521C25.4243 35.0947 25.2873 35.2869 25.1613 35.4286C25.0384 35.5704 24.9218 35.6696 24.8116 35.7263C24.7013 35.7799 24.5911 35.8066 24.4808 35.8066C24.295 35.8066 24.1437 35.7358 24.0272 35.594C23.9106 35.4522 23.8524 35.2333 23.8524 34.9372C23.8524 34.7765 23.8744 34.6096 23.9185 34.4363C23.9626 34.263 24.0177 34.0914 24.0839 33.9212C24.15 33.748 24.2241 33.5779 24.306 33.4109C24.3879 33.244 24.4651 33.0864 24.5375 32.9384C24.6131 32.7872 24.6809 32.647 24.7407 32.5178C24.8006 32.3887 24.8431 32.2753 24.8683 32.1776L24.8399 32.1493C24.7895 32.1493 24.7218 32.176 24.6368 32.2296C24.5517 32.2831 24.4556 32.3446 24.3485 32.4139C24.2446 32.48 24.1327 32.543 24.013 32.6029C23.8933 32.6627 23.772 32.699 23.6492 32.7116C23.6429 32.7557 23.6287 32.8202 23.6066 32.9053C23.5877 32.9904 23.561 33.0849 23.5263 33.1888C23.4917 33.2928 23.4523 33.3999 23.4082 33.5101C23.3641 33.6204 23.3184 33.7244 23.2711 33.822L23.2239 33.9212L23.0301 33.7748ZM23.2617 31.8799C23.2333 31.8799 23.2097 31.8894 23.1908 31.9083C23.1719 31.9272 23.1625 31.9492 23.1625 31.9744C23.1625 32.0122 23.1719 32.0453 23.1908 32.0737C23.2097 32.0989 23.2333 32.1209 23.2617 32.1398C23.29 32.1556 23.3184 32.1682 23.3467 32.1776C23.3782 32.1839 23.405 32.1871 23.4271 32.1871C23.4271 32.0989 23.4129 32.0264 23.3845 31.9697C23.3562 31.9098 23.3152 31.8799 23.2617 31.8799ZM28.795 34.6348C28.795 34.8143 28.8108 34.9655 28.8423 35.0884C28.8738 35.2113 28.9289 35.2727 29.0077 35.2727C29.0549 35.2727 29.1053 35.2506 29.1589 35.2065C29.2156 35.1593 29.2801 35.0837 29.3526 34.9797C29.4251 34.8758 29.507 34.7419 29.5983 34.5781C29.6928 34.4111 29.7999 34.2079 29.9196 33.9685L30.0614 33.6755L30.2551 33.822L30.1134 34.115C29.9811 34.3796 29.8566 34.6174 29.7401 34.8285C29.6267 35.0364 29.518 35.2128 29.414 35.3577C29.3101 35.5026 29.2077 35.6145 29.1069 35.6932C29.0092 35.7688 28.9116 35.8066 28.8139 35.8066C28.71 35.8066 28.6218 35.7783 28.5493 35.7216C28.48 35.6649 28.4217 35.5877 28.3745 35.49C28.3272 35.3892 28.291 35.2743 28.2658 35.1451C28.2406 35.0128 28.2233 34.8726 28.2138 34.7245C28.1382 34.8758 28.0547 35.0175 27.9634 35.1498C27.872 35.279 27.7759 35.3924 27.6751 35.49C27.5775 35.5877 27.4751 35.6649 27.368 35.7216C27.2609 35.7783 27.1538 35.8066 27.0467 35.8066C26.8891 35.8066 26.7364 35.7736 26.5883 35.7074C26.4402 35.6413 26.3079 35.5404 26.1914 35.405C26.078 35.2695 25.9866 35.0994 25.9173 34.8947C25.848 34.6867 25.8133 34.4426 25.8133 34.1622C25.8133 33.8346 25.8559 33.5353 25.9409 33.2644C26.026 32.9904 26.141 32.7557 26.2859 32.5604C26.4308 32.3619 26.5977 32.2091 26.7868 32.102C26.9758 31.9917 27.1742 31.9366 27.3822 31.9366C27.5082 31.9366 27.6247 31.965 27.7318 32.0217C27.8389 32.0784 27.9319 32.1477 28.0106 32.2296C28.0925 32.3083 28.1602 32.3934 28.2138 32.4848C28.2674 32.573 28.3036 32.6486 28.3225 32.7116L28.3792 32.2532C28.3855 32.1934 28.4138 32.143 28.4642 32.102C28.5178 32.0611 28.5761 32.0295 28.6391 32.0075C28.7021 31.9823 28.7635 31.965 28.8234 31.9555C28.8832 31.9429 28.9257 31.9366 28.951 31.9366C28.9888 31.9366 29.014 31.9429 29.0266 31.9555C29.0392 31.9681 29.0455 31.9933 29.0455 32.0311C29.0455 32.0784 29.0313 32.1745 29.0029 32.3194C28.9777 32.4611 28.9494 32.6438 28.9179 32.8675C28.8895 33.088 28.8612 33.3479 28.8328 33.6472C28.8076 33.9464 28.795 34.2756 28.795 34.6348ZM28.2752 33.3873C28.2752 33.2424 28.2532 33.1006 28.2091 32.962C28.165 32.8202 28.1051 32.6958 28.0295 32.5887C27.9539 32.4785 27.8657 32.3902 27.7649 32.3241C27.6672 32.2579 27.5633 32.2249 27.453 32.2249C27.3176 32.2249 27.19 32.2642 27.0703 32.343C26.9537 32.4186 26.8513 32.5273 26.7631 32.669C26.6781 32.8076 26.6104 32.9762 26.5599 33.1746C26.5095 33.37 26.4843 33.5857 26.4843 33.822C26.4843 34.2945 26.5584 34.6552 26.7064 34.9041C26.8545 35.1498 27.0514 35.2727 27.2971 35.2727C27.4042 35.2727 27.5145 35.2302 27.6279 35.1451C27.7444 35.0569 27.85 34.9325 27.9445 34.7718C28.0421 34.608 28.1209 34.4095 28.1807 34.1764C28.2437 33.9433 28.2752 33.6803 28.2752 33.3873Z" fill="#5E63EA"/>
<path d="M21.2159 24.4912C20.6562 24.1672 19.9493 24.5796 19.9493 25.2276V26.2291C19.9493 26.8919 19.4485 27.4663 18.7857 27.5105C18.064 27.5547 17.4602 26.9803 17.4602 26.2733V23.0478C17.4602 22.3556 16.9005 21.7959 16.223 21.7959C15.8842 21.7959 15.5749 21.9432 15.3393 22.1641C15.1184 22.385 14.9711 22.6943 14.9711 23.0478V29.8523C14.9711 30.5151 14.4703 31.0895 13.8075 31.1337C13.0859 31.1778 12.482 30.6034 12.482 29.8965V24.4912C12.482 23.799 11.9223 23.2393 11.2301 23.2393C10.5379 23.2393 9.99291 23.799 9.97818 24.4765V25.6694C9.97818 26.3322 9.47742 26.9066 8.81464 26.9508C8.09295 26.995 7.48909 26.4206 7.48909 25.7136V18.1727C7.48909 17.4805 6.92941 16.9355 6.25191 16.9355C5.91316 16.9355 5.60386 17.0681 5.36821 17.3038C5.14728 17.5247 5 17.834 5 18.1875V33.8584C5 35.7289 7.03251 36.8924 8.65263 35.9646L21.1864 28.7182C22.836 27.7756 22.836 25.4338 21.2159 24.4912ZM9.99291 31.0453C9.99291 31.7375 9.43323 32.2825 8.75573 32.2825C8.06349 32.2825 7.51855 31.7228 7.51855 31.0453V28.7624C7.51855 28.0702 8.07822 27.5252 8.75573 27.5252C9.09448 27.5252 9.40377 27.6725 9.63943 27.8934C9.86035 28.1144 10.0076 28.4236 10.0076 28.7771V31.0453H9.99291Z" fill="url(#paint1_linear_5025_1065)"/>
<path d="M11.2596 22.2228C10.5674 22.2228 10.0225 21.6631 10.0225 20.9856V20.1903C10.0225 19.4981 10.5821 18.9531 11.2596 18.9531C11.9519 18.9531 12.4968 19.5128 12.4968 20.1903V20.9856C12.4968 21.6631 11.9371 22.2228 11.2596 22.2228Z" fill="#5E63EA"/>
<defs>
<linearGradient id="paint0_linear_5025_1065" x1="10.6452" y1="14.9187" x2="10.6452" y2="36.6929" gradientUnits="userSpaceOnUse">
<stop stop-color="#5E63EA"/>
<stop offset="1" stop-color="#26285F"/>
</linearGradient>
<linearGradient id="paint1_linear_5025_1065" x1="7.41936" y1="34.6775" x2="9.03226" y2="26.613" gradientUnits="userSpaceOnUse">
<stop stop-color="#5E63EA"/>
<stop offset="1" stop-color="#26285F"/>
</linearGradient>
</defs>
</svg>
