<svg width="28" height="28" viewBox="0 0 28 28" fill="none" xmlns="http://www.w3.org/2000/svg">
<g id="workspace_premium">
<mask id="mask0_5014_590" style="mask-type:alpha" maskUnits="userSpaceOnUse" x="0" y="0" width="28" height="28">
<rect id="Bounding box" width="28" height="28" fill="#D9D9D9"/>
</mask>
<g mask="url(#mask0_5014_590)">
<path id="workspace_premium_2" d="M14.4641 15.65L15.4897 12.325L12.7939 10.1667H16.1344L17.1892 6.9L18.2441 10.1667H21.5846L18.8595 12.325L19.8851 15.65L17.1892 13.5792L14.4641 15.65ZM10.1567 26.5V17.4875C9.41436 16.6708 8.83808 15.7375 8.42785 14.6875C8.01762 13.6375 7.8125 12.5194 7.8125 11.3333C7.8125 8.72778 8.72087 6.52083 10.5376 4.7125C12.3544 2.90417 14.5716 2 17.1892 2C19.8069 2 22.0241 2.90417 23.8409 4.7125C25.6576 6.52083 26.566 8.72778 26.566 11.3333C26.566 12.5194 26.3609 13.6375 25.9506 14.6875C25.5404 15.7375 24.9641 16.6708 24.2218 17.4875V26.5L17.1892 24.1667L10.1567 26.5ZM17.1892 18.3333C19.1427 18.3333 20.8032 17.6528 22.1706 16.2917C23.5381 14.9306 24.2218 13.2778 24.2218 11.3333C24.2218 9.38889 23.5381 7.73611 22.1706 6.375C20.8032 5.01389 19.1427 4.33333 17.1892 4.33333C15.2358 4.33333 13.5753 5.01389 12.2078 6.375C10.8404 7.73611 10.1567 9.38889 10.1567 11.3333C10.1567 13.2778 10.8404 14.9306 12.2078 16.2917C13.5753 17.6528 15.2358 18.3333 17.1892 18.3333ZM12.5009 23.0292L17.1892 21.8333L21.8776 23.0292V19.4125C21.1939 19.8014 20.4565 20.1076 19.6653 20.3313C18.8741 20.5549 18.0488 20.6667 17.1892 20.6667C16.3297 20.6667 15.5044 20.5549 14.7132 20.3313C13.922 20.1076 13.1846 19.8014 12.5009 19.4125V23.0292Z" fill="#FFEE33"/>
</g>
</g>
</svg>
