<svg width="18" height="21" viewBox="0 0 18 21" fill="none" xmlns="http://www.w3.org/2000/svg">
<g id="XMLID_2_">
<g id="XMLID_7_">
<path id="XMLID_30_" d="M16.2159 8.49118C15.6562 8.16716 14.9493 8.57955 14.9493 9.2276V10.2291C14.9493 10.8919 14.4485 11.4663 13.7857 11.5105C13.064 11.5547 12.4602 10.9803 12.4602 10.2733V7.04781C12.4602 6.35557 11.9005 5.7959 11.223 5.7959C10.8842 5.7959 10.5749 5.94318 10.3393 6.16411C10.1184 6.38503 9.97109 6.69433 9.97109 7.04781V13.8523C9.97109 14.5151 9.47032 15.0895 8.80755 15.1337C8.08586 15.1778 7.482 14.6034 7.482 13.8965V8.49118C7.482 7.79895 6.92232 7.23927 6.23009 7.23927C5.53786 7.23927 4.99291 7.79895 4.97818 8.47645V9.66945C4.97818 10.3322 4.47742 10.9066 3.81464 10.9508C3.09295 10.995 2.48909 10.4206 2.48909 9.71364V2.17273C2.48909 1.4805 1.92941 0.935547 1.25191 0.935547C0.913157 0.935547 0.603862 1.0681 0.368208 1.30376C0.147283 1.52468 0 1.83398 0 2.18746V17.8584C0 19.7289 2.03251 20.8924 3.65263 19.9646L16.1864 12.7182C17.836 11.7756 17.836 9.4338 16.2159 8.49118ZM4.99291 15.0453C4.99291 15.7375 4.43323 16.2825 3.75573 16.2825C3.06349 16.2825 2.51855 15.7228 2.51855 15.0453V12.7624C2.51855 12.0702 3.07822 11.5252 3.75573 11.5252C4.09448 11.5252 4.40377 11.6725 4.63943 11.8934C4.86035 12.1144 5.00764 12.4236 5.00764 12.7771V15.0453H4.99291Z" fill="url(#paint0_linear_5014_1068)"/>
<path id="XMLID_35_" d="M6.25964 6.22282C5.56741 6.22282 5.02246 5.66314 5.02246 4.98564V4.19031C5.02246 3.49807 5.58214 2.95312 6.25964 2.95312C6.95187 2.95312 7.49682 3.5128 7.49682 4.19031V4.98564C7.49682 5.66314 6.93714 6.22282 6.25964 6.22282Z" fill="#5E63EA"/>
</g>
</g>
<defs>
<linearGradient id="paint0_linear_5014_1068" x1="2.41936" y1="18.6775" x2="4.03226" y2="10.613" gradientUnits="userSpaceOnUse">
<stop stop-color="#5E63EA"/>
<stop offset="1" stop-color="#26285F"/>
</linearGradient>
</defs>
</svg>
